<svg version="1.1" xmlns="http://www.w3.org/2000/svg" viewBox="-277.7 -1072.2 4653.9 1599.4"><desc>Created with Snap</desc><defs></defs><g><g><g transform="matrix(0.5,0,0,-0.5,0,0)"><path d="M329 946Q441 1030 609 1030Q847 1030 920 833Q944 768 944 669Q944 571 921 477Q899 384 859 309Q819 234 764 177Q710 120 646 82Q518 5 374 1Q376 -53 380 -105L390 -211Q399 -319 452 -394L486 -440L121 -440Q149 -344 153 -248Q158 -152 160 -84Q163 -15 164 58Q168 228 168 356Q168 768 142 860Q126 917 101 951L59 1010L328 1010Q322 990 329 946ZM694 643Q694 930 549 930Q477 930 429 866Q377 797 377 677L370 203L370 148Q370 121 371 93Q516 115 606 267Q694 417 694 643ZM1864 340Q1900 316 1900 256Q1900 197 1884 152Q1868 107 1828 68Q1738 -20 1554 -20Q1340 -20 1228 138Q1129 279 1129 519Q1129 761 1263 899Q1390 1030 1607 1030Q1758 1030 1843 942Q1910 872 1910 780Q1910 689 1874 615Q1839 542 1770 489Q1628 379 1373 373Q1394 172 1499 104Q1537 80 1600 80Q1663 80 1734 146Q1805 212 1864 340ZM1367 499L1367 468Q1683 489 1683 774Q1683 881 1619 918Q1597 930 1561 930Q1525 930 1488 908Q1452 886 1425 836Q1367 727 1367 499ZM2771 1070Q2796 1010 2796 938Q2796 867 2791 820Q2786 773 2776 729Q2755 636 2711 580Q2667 852 2568 910Q2533 930 2492 930Q2452 930 2422 911Q2392 892 2371 856Q2328 784 2328 669Q2328 555 2351 472Q2374 390 2411 324Q2449 259 2496 211Q2544 164 2592 132Q2689 70 2764 70Q2760 44 2738 19Q2716 -6 2690 -20Q2584 -20 2447 52Q2192 187 2103 446Q2070 541 2070 640Q2070 740 2093 808Q2116 877 2160 926Q2250 1030 2410 1030Q2464 1030 2515 1023Q2611 1010 2649 1010Q2688 1010 2718 1020Q2748 1031 2771 1070ZM3286 1410Q3265 1333 3265 1225Q3265 1118 3269 1088Q3274 1058 3284 1040Q3303 1010 3358 1010L3626 1010Q3626 954 3599 924Q3550 870 3479 870Q3444 870 3417 880Q3368 900 3341 900Q3314 900 3297 889Q3280 879 3270 859Q3252 823 3252 702Q3252 581 3259 454Q3267 327 3297 241Q3327 156 3388 113Q3449 70 3556 70Q3556 39 3514 -4Q3503 -16 3495 -20Q3318 -20 3230 22Q3129 72 3086 200Q3043 330 3043 585Q3043 808 3031 848Q3019 889 3009 902Q2997 917 2951 939Q3013 986 3074 1114L3124 1219Q3177 1339 3214 1374Q3252 1410 3286 1410ZM4173 930Q4083 930 4043 840Q4004 750 4004 537Q4004 80 4173 80Q4263 80 4302 202Q4342 324 4342 537Q4342 750 4302 840Q4263 930 4173 930ZM3752 575Q3752 1030 4173 1030Q4594 1030 4594 575Q4594 299 4478 138Q4365 -20 4173 -20Q3981 -20 3868 138Q3752 299 3752 575ZM5113 720L5112 458Q5112 134 5151 0L4856 0Q4884 97 4891 229Q4906 548 4906 724Q4906 900 4905 960Q4904 1021 4903 1082Q4897 1299 4882 1355Q4868 1412 4855 1437Q4843 1463 4827 1484L4794 1530L5159 1530Q5131 1429 5126 1336Q5122 1244 5119 1173Q5117 1102 5115 1025Q5113 897 5113 720ZM6141 534L6138 342Q6138 163 6171 98Q6191 59 6218 38L6265 0L5975 0L5944 116Q5831 -20 5622 -20Q5503 -20 5430 60Q5366 132 5366 230Q5366 328 5412 401Q5459 474 5535 522Q5685 615 5912 619L5912 630Q5912 873 5837 915Q5810 930 5767 930Q5725 930 5683 902Q5641 874 5607 830Q5539 741 5510 620Q5421 673 5421 823Q5421 884 5437 960Q5475 960 5509 971L5586 995Q5699 1030 5807 1030Q5915 1030 5979 998Q6044 966 6080 903Q6141 796 6141 534ZM5582 210Q5582 148 5610 114Q5639 80 5682 80Q5725 80 5765 102Q5805 125 5837 164Q5912 253 5912 373L5912 521Q5772 508 5681 428Q5582 342 5582 210ZM6688 979Q6788 1030 6888 1030Q6989 1030 7051 1007Q7113 985 7157 942Q7249 851 7249 682Q7249 348 7074 164Q6917 0 6682 0L6410 0L6429 46Q6459 119 6464 196Q6469 274 6471 338Q6474 403 6476 478Q6481 613 6481 743Q6481 873 6480 940Q6479 1007 6478 1070Q6472 1308 6458 1359Q6445 1411 6432 1436Q6420 1462 6404 1484L6370 1530L6735 1530Q6698 1398 6688 979ZM6689 716L6686 348Q6686 155 6696 77Q6833 107 6916 260Q6999 411 6999 632Q6999 769 6978 824Q6958 880 6929 905Q6901 930 6861 930Q6822 930 6792 916Q6762 902 6739 875Q6689 816 6689 716ZM8088 1069Q8115 1009 8115 948Q8115 887 8109 847Q8104 807 8093 770Q8068 686 8022 641Q7991 796 7954 842Q7918 888 7881 904Q7845 920 7804 920Q7763 920 7737 912Q7711 904 7692 889Q7649 856 7649 814Q7649 772 7670 741Q7691 711 7725 684Q7760 658 7804 633L7894 582Q8010 517 8053 474Q8138 389 8138 295Q8138 172 8054 88Q7948 -20 7736 -20Q7543 -20 7446 70Q7418 96 7406 122Q7414 197 7473 263Q7530 327 7584 337Q7580 324 7580 298Q7580 272 7595 233Q7610 195 7638 162Q7701 86 7780 86Q7859 86 7896 122Q7933 158 7933 204Q7933 250 7912 281Q7891 312 7856 339Q7822 366 7778 391L7688 442Q7573 510 7530 558Q7444 654 7444 767Q7444 886 7544 960Q7639 1030 7781 1030L7957 1018Q8021 1018 8046 1033Q8071 1049 8088 1069Z" fill="#fa858b" style=""></path></g></g></g></svg>